<svg width="23" height="16" viewBox="0 0 23 16" fill="none" xmlns="http://www.w3.org/2000/svg">
<path d="M0.837499 15.0253C0.374961 15.0253 0 14.6504 0 14.1878C0 13.7253 0.374961 13.3503 0.8375 13.3503H21.8292C22.2917 13.3503 22.6667 13.7253 22.6667 14.1878C22.6667 14.6504 22.2917 15.0253 21.8292 15.0253H0.837499ZM0.837667 8.35033C0.375036 8.35033 0 7.9753 0 7.51267C0 7.05004 0.375036 6.675 0.837667 6.675H21.829C22.2916 6.675 22.6667 7.05004 22.6667 7.51267C22.6667 7.9753 22.2916 8.35033 21.829 8.35033H0.837667ZM0.837499 1.675C0.374961 1.675 0 1.30004 0 0.8375C0 0.374962 0.374961 0 0.8375 0H21.8292C22.2917 0 22.6667 0.374962 22.6667 0.8375C22.6667 1.30004 22.2917 1.675 21.8292 1.675H0.837499Z" fill="white"/>
</svg>
